# Blender 3.4.1
# www.blender.org
mtllib simpleentity.mtl
o head.001
v 0.187500 1.687500 -0.250000
v -0.187500 1.687500 -0.250000
v -0.187500 2.125000 -0.250000
v 0.187500 2.125000 -0.250000
v 0.187500 1.687500 0.250000
v 0.187500 2.125000 0.250000
v -0.187500 1.687500 0.250000
v -0.187500 2.125000 0.250000
vn -0.0000 -0.0000 -1.0000
vn 1.0000 -0.0000 -0.0000
vn -0.0000 -0.0000 1.0000
vn -1.0000 -0.0000 -0.0000
vn -0.0000 1.0000 -0.0000
vn -0.0000 -1.0000 -0.0000
vt 0.500000 0.062500
vt 0.875000 0.500000
vt 0.875000 0.062500
vt 1.250000 0.500000
vt 0.875000 0.500000
vt 0.500000 0.500000
vt 0.000000 0.062500
vt 1.750000 0.062500
vt 0.875000 1.000000
vt 0.000000 0.500000
vt 1.750000 0.500000
vt 0.500000 1.000000
vt 1.375000 0.062500
vt 1.250000 1.000000
vt 1.375000 0.500000
vt 0.875000 1.000000
s 1
usemtl none
f 1/1/1 2/3/1 3/5/1 4/6/1
f 5/7/2 1/1/2 4/6/2 6/10/2
f 7/13/3 5/8/3 6/11/3 8/15/3
f 2/3/4 7/13/4 8/15/4 3/5/4
f 8/16/5 6/12/5 4/6/5 3/5/5
f 2/4/6 1/2/6 5/9/6 7/14/6
o head
v 0.187500 1.000000 -0.062500
v -0.187500 1.000000 -0.062500
v -0.187500 1.687500 -0.062500
v 0.187500 1.687500 -0.062500
v 0.187500 1.000000 0.062500
v 0.187500 1.687500 0.062500
v -0.187500 1.000000 0.062500
v -0.187500 1.687500 0.062500
vn -0.0000 -0.0000 -1.0000
vn 1.0000 -0.0000 -0.0000
vn -0.0000 -0.0000 1.0000
vn -1.0000 -0.0000 -0.0000
vn -0.0000 1.0000 -0.0000
vn -0.0000 -1.0000 -0.0000
vt 0.125000 0.187500
vt 0.500000 0.875000
vt 0.500000 0.187500
vt 0.875000 0.875000
vt 0.500000 0.875000
vt 0.125000 0.875000
vt 0.000000 0.187500
vt 1.000000 0.187500
vt 0.500000 1.000000
vt 0.000000 0.875000
vt 1.000000 0.875000
vt 0.125000 1.000000
vt 0.625000 0.187500
vt 0.875000 1.000000
vt 0.625000 0.875000
vt 0.500000 1.000000
s 1
usemtl none
f 9/17/7 10/19/7 11/21/7 12/22/7
f 13/23/8 9/17/8 12/22/8 14/26/8
f 15/29/9 13/24/9 14/27/9 16/31/9
f 10/19/10 15/29/10 16/31/10 11/21/10
f 16/32/11 14/28/11 12/22/11 11/21/11
f 10/20/12 9/18/12 13/25/12 15/30/12
o rightarm
v -0.187500 1.000000 -0.062500
v -0.312500 1.000000 -0.062500
v -0.312500 1.687500 -0.062500
v -0.187500 1.687500 -0.062500
v -0.187500 1.000000 0.062500
v -0.187500 1.687500 0.062500
v -0.312500 1.000000 0.062500
v -0.312500 1.687500 0.062500
vn -0.0000 -0.0000 -1.0000
vn 1.0000 -0.0000 -0.0000
vn -0.0000 -0.0000 1.0000
vn -1.0000 -0.0000 -0.0000
vn -0.0000 1.0000 -0.0000
vn -0.0000 -1.0000 -0.0000
vt 0.125000 0.187500
vt 0.250000 0.875000
vt 0.250000 0.187500
vt 0.375000 0.875000
vt 0.250000 0.875000
vt 0.125000 0.875000
vt 0.000000 0.187500
vt 0.500000 0.187500
vt 0.250000 1.000000
vt 0.000000 0.875000
vt 0.500000 0.875000
vt 0.125000 1.000000
vt 0.375000 0.187500
vt 0.375000 1.000000
vt 0.375000 0.875000
vt 0.250000 1.000000
s 1
usemtl none
f 17/33/13 18/35/13 19/37/13 20/38/13
f 21/39/14 17/33/14 20/38/14 22/42/14
f 23/45/15 21/40/15 22/43/15 24/47/15
f 18/35/16 23/45/16 24/47/16 19/37/16
f 24/48/17 22/44/17 20/38/17 19/37/17
f 18/36/18 17/34/18 21/41/18 23/46/18
o leftarm
v 0.312500 1.000000 -0.062500
v 0.187500 1.000000 -0.062500
v 0.187500 1.687500 -0.062500
v 0.312500 1.687500 -0.062500
v 0.312500 1.000000 0.062500
v 0.312500 1.687500 0.062500
v 0.187500 1.000000 0.062500
v 0.187500 1.687500 0.062500
vn -0.0000 -0.0000 -1.0000
vn 1.0000 -0.0000 -0.0000
vn -0.0000 -0.0000 1.0000
vn -1.0000 -0.0000 -0.0000
vn -0.0000 1.0000 -0.0000
vn -0.0000 -1.0000 -0.0000
vt 0.125000 0.187500
vt 0.250000 0.875000
vt 0.250000 0.187500
vt 0.375000 0.875000
vt 0.250000 0.875000
vt 0.125000 0.875000
vt 0.000000 0.187500
vt 0.500000 0.187500
vt 0.250000 1.000000
vt 0.000000 0.875000
vt 0.500000 0.875000
vt 0.125000 1.000000
vt 0.375000 0.187500
vt 0.375000 1.000000
vt 0.375000 0.875000
vt 0.250000 1.000000
s 1
usemtl none
f 25/49/19 26/51/19 27/53/19 28/54/19
f 29/55/20 25/49/20 28/54/20 30/58/20
f 31/61/21 29/56/21 30/59/21 32/63/21
f 26/51/22 31/61/22 32/63/22 27/53/22
f 32/64/23 30/60/23 28/54/23 27/53/23
f 26/52/24 25/50/24 29/57/24 31/62/24
o leftleg
v 0.187500 0.000000 -0.062500
v 0.062500 0.000000 -0.062500
v 0.062500 1.000000 -0.062500
v 0.187500 1.000000 -0.062500
v 0.187500 -0.000000 0.062500
v 0.187500 1.000000 0.062500
v 0.062500 -0.000000 0.062500
v 0.062500 1.000000 0.062500
vn -0.0000 -0.0000 -1.0000
vn 1.0000 -0.0000 -0.0000
vn -0.0000 -0.0000 1.0000
vn -1.0000 -0.0000 -0.0000
vn -0.0000 1.0000 -0.0000
vn -0.0000 -1.0000 -0.0000
vt 0.125000 -0.125000
vt 0.250000 0.875000
vt 0.250000 -0.125000
vt 0.375000 0.875000
vt 0.250000 0.875000
vt 0.125000 0.875000
vt 0.000000 -0.125000
vt 0.500000 -0.125000
vt 0.250000 1.000000
vt 0.000000 0.875000
vt 0.500000 0.875000
vt 0.125000 1.000000
vt 0.375000 -0.125000
vt 0.375000 1.000000
vt 0.375000 0.875000
vt 0.250000 1.000000
s 1
usemtl none
f 33/65/25 34/67/25 35/69/25 36/70/25
f 37/71/26 33/65/26 36/70/26 38/74/26
f 39/77/27 37/72/27 38/75/27 40/79/27
f 34/67/28 39/77/28 40/79/28 35/69/28
f 40/80/29 38/76/29 36/70/29 35/69/29
f 34/68/30 33/66/30 37/73/30 39/78/30
o rightleg
v -0.062500 0.000000 -0.062500
v -0.187500 0.000000 -0.062500
v -0.187500 1.000000 -0.062500
v -0.062500 1.000000 -0.062500
v -0.062500 -0.000000 0.062500
v -0.062500 1.000000 0.062500
v -0.187500 -0.000000 0.062500
v -0.187500 1.000000 0.062500
vn -0.0000 -0.0000 -1.0000
vn 1.0000 -0.0000 -0.0000
vn -0.0000 -0.0000 1.0000
vn -1.0000 -0.0000 -0.0000
vn -0.0000 1.0000 -0.0000
vn -0.0000 -1.0000 -0.0000
vt 0.125000 -0.125000
vt 0.250000 0.875000
vt 0.250000 -0.125000
vt 0.375000 0.875000
vt 0.250000 0.875000
vt 0.125000 0.875000
vt 0.000000 -0.125000
vt 0.500000 -0.125000
vt 0.250000 1.000000
vt 0.000000 0.875000
vt 0.500000 0.875000
vt 0.125000 1.000000
vt 0.375000 -0.125000
vt 0.375000 1.000000
vt 0.375000 0.875000
vt 0.250000 1.000000
s 1
usemtl none
f 41/81/31 42/83/31 43/85/31 44/86/31
f 45/87/32 41/81/32 44/86/32 46/90/32
f 47/93/33 45/88/33 46/91/33 48/95/33
f 42/83/34 47/93/34 48/95/34 43/85/34
f 48/96/35 46/92/35 44/86/35 43/85/35
f 42/84/36 41/82/36 45/89/36 47/94/36
